Coordinates
version=1
nRows=12
nColumns=24
inDegrees=yes

Units are S.I. units (second, meters, Newtons, ...)
Angles are in degrees.

endheader
time	pelvis_tilt	pelvis_list	pelvis_rotation	pelvis_tx	pelvis_ty	pelvis_tz	hip_flexion_r	hip_adduction_r	hip_rotation_r	knee_angle_r	ankle_angle_r	subtalar_angle_r	mtp_angle_r	hip_flexion_l	hip_adduction_l	hip_rotation_l	knee_angle_l	ankle_angle_l	subtalar_angle_l	mtp_angle_l	lumbar_extension	lumbar_bending	lumbar_rotation
      2.40500000	      7.17328395	     -2.40213164	     -5.55831169	      0.99401203	      0.98356487	      0.07064005	    -21.43304771	     -2.95473954	    -12.75123387	    -31.09459710	     -9.42252127	      7.18490935	     35.17629084	     14.59893946	     -4.24760792	    -25.94017818	    -20.97724405	     -7.09599547	     -3.49519594	     16.76151631	    -11.98141497	    -10.63529772	    -15.87636765
      2.41000000	      7.21790302	     -2.47351323	     -5.25151322	      1.00051301	      0.98472739	      0.06948240	    -20.81058826	     -3.01059968	    -12.59196799	    -32.59631846	    -10.42836697	      6.85557066	     33.10562867	     14.22546312	     -4.15458321	    -25.68047913	    -21.07636698	     -6.63197404	     -3.33532634	     15.41919888	    -12.07223499	    -10.53837528	    -16.13634263
      2.41500000	      7.26358097	     -2.55595629	     -4.87921131	      1.00692282	      0.98588079	      0.06823181	    -20.17514110	     -3.02328281	    -12.49812412	    -34.05463717	    -11.50300159	      6.27852047	     32.64395287	     13.85650104	     -4.05241242	    -25.30533636	    -21.14038252	     -6.34056392	     -3.33218861	     15.34119860	    -12.18613691	    -10.41305095	    -16.45304720
      2.42000000	      7.31255975	     -2.64821321	     -4.56941655	      1.01329311	      0.98707773	      0.06708958	    -19.49918476	     -3.03137101	    -12.27990460	    -35.55121388	    -12.15853205	      6.07074029	     29.35528320	     13.46167968	     -3.98524853	    -25.01937314	    -21.19298170	     -5.92747537	     -3.17745295	     14.30092430	    -12.29595670	    -10.28507972	    -16.72329747
      2.42500000	      7.35138387	     -2.74805708	     -4.24453885	      1.01959990	      0.98826313	      0.06593017	    -18.79363299	     -3.01389019	    -12.08385173	    -37.01406801	    -12.76759355	      5.69816622	     27.12699899	     13.07453280	     -3.92341431	    -24.68855422	    -21.22506235	     -5.56480918	     -3.08514989	     13.69965020	    -12.39257778	    -10.14005137	    -17.00448591
      2.43000000	      7.38516693	     -2.85433762	     -3.91018439	      1.02585475	      0.98944289	      0.06478141	    -18.06490985	     -2.96989781	    -11.88327651	    -38.45092049	    -13.18454292	      5.33707180	     24.76115300	     12.69407989	     -3.87352518	    -24.33809992	    -21.25382988	     -5.20249545	     -2.98253442	     13.07237640	    -12.48842440	     -9.98682826	    -17.31395351
      2.43500000	      7.41798048	     -2.96564699	     -3.57380336	      1.03205233	      0.99061963	      0.06364148	    -17.32021883	     -2.90649705	    -11.68789003	    -39.85371488	    -13.41682529	      4.97606082	     22.41042851	     12.31002172	     -3.83285235	    -23.97689148	    -21.26662189	     -4.86095261	     -2.89205230	     12.51205714	    -12.58595256	     -9.82074254	    -17.61305093
      2.44000000	      7.47348328	     -3.09403668	     -3.25555287	      1.03819277	      0.99184083	      0.06254597	    -16.59099730	     -2.81253191	    -11.47176337	    -41.17907076	    -13.69505748	      4.37676729	     21.75849850	     11.88912128	     -3.81433335	    -23.63094317	    -21.24903639	     -4.56586192	     -2.88841132	     12.37410718	    -12.70220661	     -9.63578934	    -17.87242258
      2.44500000	      7.48887163	     -3.20741650	     -2.92864088	      1.04427271	      0.99300309	      0.06147064	    -15.79041720	     -2.72330492	    -11.27473405	    -42.53836584	    -13.36485687	      4.26358816	     18.10398336	     11.51558993	     -3.79612869	    -23.28071734	    -21.24770208	     -4.17679105	     -2.67142426	     11.28310595	    -12.78118176	     -9.47213905	    -18.20909748
      2.45000000	      7.50108046	     -3.34217601	     -2.61245458	      1.05032355	      0.99417481	      0.06041957	    -14.99446448	     -2.59700485	    -11.07704224	    -43.76491430	    -13.34628054	      3.78571645	     17.85108250	     11.13110184	     -3.79955928	    -22.92963432	    -21.19280185	     -3.95991399	     -2.62448193	     11.24118741	    -12.84693316	     -9.27714167	    -18.48800940
      2.45500000	      7.54316850	     -3.46761576	     -2.29649746	      1.05630188	      0.99537455	      0.05939196	    -14.20930531	     -2.47813625	    -10.91482131	    -45.00102790	    -12.76228190	      3.59836461	     14.69710563	     10.71515057	     -3.80512430	    -22.61085054	    -21.16104477	     -3.55234143	     -2.42828673	     10.19483185	    -12.95247117	     -9.09339805	    -18.77312363
      2.46000000	      7.58240409	     -3.59979521	     -1.97976543	      1.06226896	      0.99655651	      0.05836204	    -13.43134411	     -2.34708719	    -10.78321966	    -46.12010571	    -12.41481901	      3.22022551	     14.62615496	     10.30141477	     -3.81956450	    -22.28093460	    -21.10447462	     -3.33573256	     -2.36780067	     10.18258618	    -13.04748106	     -8.89528662	    -19.05831365
